<svg xmlns="http://www.w3.org/2000/svg" width="192" height="37.617" viewBox="0 0 192 37.617"><defs><style>.a{fill:#be1622;}.b{fill:#1d1d1b;}</style></defs><g transform="translate(0 0.001)"><g transform="translate(0 -0.001)"><path class="a" d="M0,10.538C0,4.553,3.906,0,9.891,0a9.45,9.45,0,0,1,5.733,1.8A7.875,7.875,0,0,1,18.633,7.34H13.656a3.623,3.623,0,0,0-3.8-3.15c-3.26,0-4.725,2.725-4.725,6.379s1.859,6.3,4.835,6.3A3.686,3.686,0,0,0,13.8,13.546h4.977a7.875,7.875,0,0,1-2.426,5.135,8.71,8.71,0,0,1-6.426,2.284C4.016,20.965,0,16.555,0,10.538Z" transform="translate(0 0.001)"/><path class="a" d="M13.81.27h5.024V7.878h7.056V.27H30.8V20.321H25.828V11.988H18.834v8.332H13.81Z" transform="translate(7.942 0.157)"/><path class="a" d="M33.3.27h5.1l7.261,20.051H40.435L39.253,16.7H32.26l-1.181,3.623H26.07Zm4.8,12.9L36.528,8.3c-.331-1.04-.788-2.835-.788-2.835h0s-.473,1.8-.819,2.835L33.347,13.17Z" transform="translate(14.992 0.157)"/><path class="a" d="M40,.27h9.608c3.985,0,7.025,2.048,7.025,5.78a4.835,4.835,0,0,1-3.512,4.82h0a4.032,4.032,0,0,1,2.93,3.686c.425,2.646.142,5.166.835,5.418v.347h-4.82c-.536-.3-.457-2.662-.772-4.725a2.93,2.93,0,0,0-3.339-2.867H44.946v7.592H40Zm8.694,8.868c1.953,0,2.977-.914,2.977-2.441S50.71,4.208,48.8,4.208H44.946v4.93Z" transform="translate(23.002 0.157)"/><path class="a" d="M57.8,4.475H52V.27H68.68V4.475H62.773V20.321H57.8Z" transform="translate(29.903 0.157)"/><path class="a" d="M69.214.27h5.1l7.245,20.051H76.349L75.168,16.7H68.143l-1.15,3.623H62Zm4.725,12.9L72.364,8.3c-.331-1.04-.788-2.835-.788-2.835h0s-.488,1.8-.819,2.835L69.182,13.17Z" transform="translate(35.654 0.157)"/><path class="b" d="M76.06.27h1.89V20.321H76.06Z" transform="translate(43.739 0.157)"/><path class="b" d="M80.32.27h2.552L89.818,17.8h0L96.638.27h2.646V20.321H97.457V2.853h0s-.536,1.575-.961,2.725L90.637,20.321h-1.67L83.108,5.578c-.425-1.04-.992-2.725-.992-2.725h0V20.321h-1.8Z" transform="translate(46.189 0.157)"/><path class="b" d="M95.44.27h2.552l6.946,17.53h0L111.758.27H114.4V20.321h-1.827V2.853h0s-.536,1.575-.945,2.725l-5.859,14.743H104.2L98.212,5.578c-.41-1.04-.977-2.725-.977-2.725h0V20.321H95.5Z" transform="translate(54.884 0.157)"/><path class="b" d="M110,10.458C110,4.473,113.623,0,119.293,0s9.45,4.473,9.45,10.458S125.058,20.9,119.293,20.9,110,16.444,110,10.458Zm16.743,0c0-4.867-2.583-8.773-7.419-8.773s-7.356,3.906-7.356,8.773,2.552,8.757,7.356,8.757,7.387-3.906,7.387-8.757Z" transform="translate(63.257 0.002)"/><path class="b" d="M25.62,19.371h2.3a1.575,1.575,0,0,1,1.1.362,1.323,1.323,0,0,1,.425,1.04,1.166,1.166,0,0,1-.819,1.244h0a1.386,1.386,0,0,1,1.071,1.4,1.575,1.575,0,0,1-.41,1.118,1.811,1.811,0,0,1-1.276.441H25.62Zm2.347,2.567a1.087,1.087,0,1,0,0-2.158H26.03v2.158Zm0,2.725a1.323,1.323,0,0,0,.992-.347,1.1,1.1,0,0,0,.3-.851A1.134,1.134,0,0,0,28,22.3H26.03v2.363Z" transform="translate(14.733 11.14)"/><path class="b" d="M29.3,22.474c0,.977.441,1.748,1.449,1.748a1.213,1.213,0,0,0,1.244-.977h.362a1.575,1.575,0,0,1-1.575,1.323c-1.2,0-1.843-.882-1.843-2.142A1.874,1.874,0,0,1,30.748,20.3a1.575,1.575,0,0,1,1.071.394,2.252,2.252,0,0,1,.6,1.78Zm1.418-1.843c-.882,0-1.339.662-1.418,1.575h2.693C31.96,21.4,31.614,20.631,30.716,20.631Z" transform="translate(16.63 11.676)"/><path class="b" d="M32.31,21.175h0a1.433,1.433,0,0,1,.567-.646,1.386,1.386,0,0,1,.756-.189v.394a1.134,1.134,0,0,0-.583.095,1.355,1.355,0,0,0-.756,1.26v2.347H31.9V20.372h.394Z" transform="translate(18.344 11.698)"/><path class="b" d="M36.312,23.97v-.142h0a1.685,1.685,0,0,1-1.481.74,1.134,1.134,0,0,1-1.292-1.134c0-.977.756-1.166,1.575-1.26s1.181-.142,1.181-.52v-.142c0-.614-.362-.882-1.024-.882s-1.181.315-1.229.914H33.65c.079-.788.6-1.244,1.575-1.244s1.4.41,1.4,1.244v2.394c0,.221.126.284.268.284a.425.425,0,0,0,.189,0h0v.284a.63.63,0,0,1-.315,0,.488.488,0,0,1-.457-.536Zm0-.961v-.756a3.764,3.764,0,0,1-1.134.252c-.725.079-1.26.173-1.26.945s.425.788.945.788a1.323,1.323,0,0,0,1.449-1.26Z" transform="translate(19.288 11.676)"/><path class="b" d="M36.246,20.809h.63V19.58h.394v1.229h.74v.315h-.74v3.056c0,.3.11.394.378.394a.929.929,0,0,0,.315,0h0V24.9a1.071,1.071,0,0,1-.41,0,.63.63,0,0,1-.693-.693v-3.15h-.63Z" transform="translate(20.834 11.262)"/><path class="b" d="M40.715,24.424v-.614h0a1.449,1.449,0,0,1-1.307.709,1.2,1.2,0,0,1-1.307-1.26v-2.9h.378v2.867a.882.882,0,0,0,.992.961,1.229,1.229,0,0,0,1.26-1.26V20.36h.362v4.064Z" transform="translate(21.909 11.71)"/><path class="b" d="M41.3,21.067h0a1.575,1.575,0,0,1,1.418-.756,1.166,1.166,0,0,1,1.244,1.244v2.9h-.378V21.587a.835.835,0,0,0-.929-.945,1.292,1.292,0,0,0-1.37,1.181v2.63H40.91V20.39h.378Z" transform="translate(23.526 11.68)"/><path class="b" d="M43.84,24.915h.378c.11.488.6.693,1.166.693a1.181,1.181,0,0,0,1.339-1.26v-.693h0a1.449,1.449,0,0,1-1.355.772c-1.087,0-1.733-.835-1.733-2.048A1.843,1.843,0,0,1,45.4,20.3a1.433,1.433,0,0,1,1.323.788h0v-.693h.394v3.953a1.575,1.575,0,0,1-.41,1.118,1.764,1.764,0,0,1-1.307.473C44.455,25.939,43.9,25.466,43.84,24.915Zm2.93-2.52c0-1.008-.457-1.764-1.355-1.764s-1.386.693-1.386,1.764.441,1.7,1.355,1.7S46.77,23.45,46.77,22.4Z" transform="translate(25.084 11.675)"/><path class="b" d="M47.88,19.17h.378v6.867H47.88Z" transform="translate(27.534 11.026)"/><path class="b" d="M49.94,19.37h.425l1.5,4.142c.158.41.347,1.055.347,1.055h0s.221-.677.378-1.087l1.575-4.1h.41l-2.079,5.623h-.441Z" transform="translate(28.719 11.141)"/><path class="b" d="M53.562,22.474c0,.977.457,1.748,1.449,1.748a1.2,1.2,0,0,0,1.244-.977h.378a1.575,1.575,0,0,1-1.575,1.323c-1.2,0-1.843-.882-1.843-2.142A1.89,1.89,0,0,1,55.027,20.3a1.575,1.575,0,0,1,1.071.394,2.205,2.205,0,0,1,.6,1.78Zm1.418-1.843c-.882,0-1.323.662-1.4,1.575h2.678C56.24,21.4,55.877,20.631,54.98,20.631Z" transform="translate(30.594 11.676)"/><path class="b" d="M56.58,21.175h0a1.575,1.575,0,0,1,.567-.646,1.386,1.386,0,0,1,.756-.189v.394a1.134,1.134,0,0,0-.583.094,1.355,1.355,0,0,0-.756,1.26v2.347H56.17V20.372h.394Z" transform="translate(32.301 11.698)"/><path class="b" d="M58,20.39h.394v.63h0a1.4,1.4,0,0,1,1.26-.709,1.087,1.087,0,0,1,1.1.74h0a1.465,1.465,0,0,1,1.339-.74,1.166,1.166,0,0,1,1.229,1.244v2.9h-.378V21.587a.851.851,0,0,0-.929-.945,1.118,1.118,0,0,0-1.181,1.181v2.63h-.378V21.587a.835.835,0,0,0-.9-.945,1.2,1.2,0,0,0-1.213,1.181v2.63H58Z" transform="translate(33.354 11.681)"/><path class="b" d="M62.3,19.37h.394V20H62.3Zm0,1.575h.394v4.064H62.3Z" transform="translate(35.826 11.141)"/><path class="b" d="M63.256,20.809h.63V19.58h.394v1.229h.74v.315h-.74v3.056c0,.3.11.394.378.394a.929.929,0,0,0,.315,0h0V24.9a1.071,1.071,0,0,1-.41,0,.63.63,0,0,1-.693-.693v-3.15h-.63Z" transform="translate(36.367 11.262)"/><path class="b" d="M65,20.809h.63V19.58h.378v1.229h.74v.315h-.74v3.056c0,.3.126.394.394.394a.835.835,0,0,0,.3,0h0V24.9a1.118,1.118,0,0,1-.41,0,.614.614,0,0,1-.693-.693v-3.15H65Z" transform="translate(37.379 11.262)"/><path class="b" d="M66.87,19.37h.394v5.623H66.87Z" transform="translate(38.454 11.141)"/><path class="b" d="M70.645,24.424v-.614h0a1.449,1.449,0,0,1-1.307.709,1.2,1.2,0,0,1-1.307-1.26v-2.9h.378v2.867a.882.882,0,0,0,.992.961,1.229,1.229,0,0,0,1.26-1.26V20.36h.378v4.064Z" transform="translate(39.121 11.71)"/><path class="b" d="M71.24,21.067h0a1.575,1.575,0,0,1,1.418-.756A1.166,1.166,0,0,1,73.9,21.555v2.9h-.378V21.587a.835.835,0,0,0-.929-.945,1.292,1.292,0,0,0-1.37,1.181v2.63H70.83V20.39h.394Z" transform="translate(40.732 11.68)"/><path class="b" d="M73.765,24.915h.394c.11.488.6.693,1.166.693a1.181,1.181,0,0,0,1.339-1.26v-.693h0a1.449,1.449,0,0,1-1.355.772c-1.087,0-1.733-.835-1.733-2.048A1.843,1.843,0,0,1,75.34,20.3a1.433,1.433,0,0,1,1.323.788h0v-.693h.394v3.953a1.575,1.575,0,0,1-.41,1.118,1.764,1.764,0,0,1-1.307.473C74.379,25.939,73.828,25.466,73.765,24.915Zm2.93-2.52c0-1.008-.457-1.764-1.355-1.764s-1.386.693-1.386,1.764.425,1.7,1.355,1.7S76.694,23.45,76.694,22.4Z" transform="translate(42.302 11.675)"/><path class="b" d="M77.81,19.17h.378v6.867H77.81Z" transform="translate(44.746 11.026)"/><path class="b" d="M79.87,19.37h.41L81.855,23.5c.158.41.347,1.055.347,1.055h0s.221-.677.378-1.087l1.575-4.1h.41l-2.079,5.623h-.441Z" transform="translate(45.93 11.141)"/><path class="b" d="M83.5,22.474c0,.977.457,1.748,1.449,1.748a1.213,1.213,0,0,0,1.244-.977h.362a1.575,1.575,0,0,1-1.575,1.323c-1.2,0-1.843-.882-1.843-2.142A1.89,1.89,0,0,1,84.947,20.3a1.575,1.575,0,0,1,1.071.394,2.205,2.205,0,0,1,.6,1.78Zm1.418-1.843c-.882,0-1.323.662-1.4,1.575h2.678C86.16,21.4,85.813,20.631,84.915,20.631Z" transform="translate(47.799 11.676)"/><path class="b" d="M86.51,21.175h0a1.575,1.575,0,0,1,.567-.646,1.386,1.386,0,0,1,.756-.189v.394a1.134,1.134,0,0,0-.583.095,1.355,1.355,0,0,0-.756,1.26v2.347H86.1V20.372h.394Z" transform="translate(49.513 11.698)"/><path class="b" d="M89.154,22.662l-.851.819v1.575H87.91V19.37H88.3v3.654l2.189-2.095h.488l-1.575,1.465,1.8,2.6h-.473Z" transform="translate(50.554 11.141)"/><path class="b" d="M93.282,23.97v-.142h0a1.575,1.575,0,0,1-1.481.74,1.134,1.134,0,0,1-1.292-1.134c0-.977.756-1.166,1.575-1.26s1.181-.142,1.181-.52v-.142c0-.614-.362-.882-1.024-.882s-1.181.315-1.229.914H90.62c0-.788.6-1.244,1.575-1.244s1.418.41,1.418,1.244v2.394c0,.221.11.284.252.284h.189v.284a.677.677,0,0,1-.315,0,.488.488,0,0,1-.457-.536Zm0-.961v-.756a3.654,3.654,0,0,1-1.134.252c-.725.079-1.26.173-1.26.945s.425.788.945.788a1.307,1.307,0,0,0,1.433-1.26Z" transform="translate(52.049 11.676)"/><path class="b" d="M96.065,24.424v-.614h0a1.433,1.433,0,0,1-1.307.709,1.2,1.2,0,0,1-1.307-1.26v-2.9h.394v2.867a.866.866,0,0,0,.992.961,1.229,1.229,0,0,0,1.244-1.26V20.36h.394v4.064Z" transform="translate(53.739 11.71)"/><path class="b" d="M96.056,20.941h.614v-.772c0-.551.284-.819.866-.819h.252v.331h-.236c-.41,0-.52.189-.52.488v.772h.756v.315h-.756V25h-.378V21.256H96.04Z" transform="translate(55.229 11.129)"/></g></g></svg>